<svg xmlns="http://www.w3.org/2000/svg" width="24px" height="24px" viewBox="0 0 24 24">
    <g transform="translate(-2 -2)">
        <polygon fill="none" points="2,2 26,2 26,26 2,26"/>
        <g>
            <path fill-rule="evenodd" clip-rule="evenodd"
                  d="M13,13h2l-4,7v-4.5H9L13,8V13z M8,22v-5.5V6h8v8v8H8z M22,8h-2v2h2.5v7.5c0,0.5-0.5,1-1,1s-1-0.5-1-1V14c0-1.1-0.9-2-2-2H18V6c0-1.1-0.9-2-2-2H8C6.9,4,6,4.9,6,6v16c-1.1,0-2,0.9-2,2h2h12h2c0-1.1-0.9-2-2-2v-8.5h1v4c0,1.4,1.1,2.5,2.5,2.5s2.5-1.1,2.5-2.5V10C24,8.9,23.1,8,22,8L22,8z"/>
        </g>
    </g>
</svg>
